<svg aria-hidden="true" style="position: absolute; width: 0; height: 0; overflow: hidden;" version="1.1" xmlns="http://www.w3.org/2000/svg" xmlns:xlink="http://www.w3.org/1999/xlink">
<defs>
<symbol id="logo" viewBox="0 0 63 32">
<path fill="#e1b168" style="fill: var(--color1, #e1b168)" d="M31.51 25.914c-5.551 0-10.070-4.518-10.070-10.074s4.519-10.071 10.070-10.071 10.070 4.518 10.070 10.074c0 5.556-4.519 10.071-10.070 10.071zM31.51 6.090c-5.374 0-9.749 4.373-9.749 9.753s4.375 9.749 9.749 9.749c5.374 0 9.749-4.373 9.749-9.753s-4.375-9.749-9.749-9.749z"></path>
<path fill="#e1b168" style="fill: var(--color1, #e1b168)" d="M31.51 27.843c-0.813 0-1.626-0.084-2.417-0.244-0.771-0.158-1.53-0.392-2.253-0.698-0.714-0.302-1.398-0.675-2.038-1.106-0.636-0.428-1.231-0.923-1.774-1.466s-1.035-1.142-1.466-1.775c-0.042-0.064-0.026-0.151 0.039-0.193s0.151-0.026 0.193 0.039c0.418 0.621 0.9 1.206 1.43 1.736s1.115 1.013 1.736 1.431c0.627 0.424 1.295 0.788 1.99 1.081 0.707 0.299 1.447 0.527 2.199 0.682 1.543 0.315 3.179 0.315 4.725 0 0.752-0.154 1.491-0.383 2.199-0.682 0.694-0.293 1.363-0.659 1.99-1.081 0.62-0.421 1.205-0.9 1.736-1.431s1.013-1.113 1.43-1.736c0.042-0.064 0.129-0.081 0.193-0.039s0.080 0.128 0.039 0.193c-0.431 0.637-0.923 1.235-1.466 1.775-0.543 0.543-1.138 1.035-1.774 1.466-0.64 0.434-1.328 0.807-2.038 1.106-0.723 0.305-1.482 0.54-2.253 0.698-0.791 0.161-1.604 0.244-2.417 0.244z"></path>
<path fill="#e1b168" style="fill: var(--color1, #e1b168)" d="M41.343 9.347c-0.045 0-0.087-0.023-0.116-0.061-0.418-0.621-0.9-1.206-1.43-1.736s-1.112-1.013-1.736-1.431c-0.627-0.424-1.295-0.788-1.99-1.080-0.707-0.299-1.447-0.527-2.199-0.682-1.543-0.315-3.179-0.315-4.725 0-0.752 0.154-1.495 0.383-2.199 0.682-0.694 0.296-1.366 0.659-1.99 1.080-0.62 0.418-1.205 0.9-1.736 1.431s-1.013 1.116-1.43 1.736c-0.042 0.064-0.129 0.080-0.193 0.039s-0.080-0.129-0.039-0.193c0.431-0.637 0.922-1.235 1.466-1.775 0.543-0.543 1.141-1.035 1.774-1.466 0.64-0.434 1.328-0.804 2.038-1.106 0.723-0.305 1.482-0.54 2.253-0.701 1.581-0.325 3.253-0.325 4.834 0 0.771 0.158 1.53 0.392 2.253 0.701 0.71 0.302 1.398 0.672 2.038 1.106 0.636 0.431 1.234 0.923 1.774 1.466 0.543 0.543 1.035 1.142 1.466 1.775 0.042 0.064 0.026 0.151-0.039 0.193-0.023 0.013-0.048 0.023-0.077 0.023z"></path>
<path fill="#e1b168" style="fill: var(--color1, #e1b168)" d="M31.996 19.425c-0.723 0-1.427-0.154-2.093-0.457-0.498 0.232-1.025 0.347-1.569 0.347-2.064 0-3.745-1.682-3.745-3.746 0-1.756 1.231-3.283 2.938-3.656 0.894-1.646 2.597-2.662 4.468-2.662 2.678 0 4.886 2.074 5.066 4.74 0.845 0.524 1.366 1.453 1.366 2.447 0 1.588-1.292 2.881-2.88 2.881-0.492 0-0.977-0.129-1.411-0.373-0.675 0.318-1.398 0.479-2.141 0.479zM29.903 18.614l0.071 0.032c1.308 0.614 2.809 0.605 4.105-0.029l0.077-0.039 0.074 0.045c0.402 0.241 0.858 0.37 1.321 0.37 1.411 0 2.559-1.148 2.559-2.559 0-0.91-0.492-1.759-1.282-2.215l-0.077-0.045-0.003-0.087c-0.129-2.534-2.215-4.521-4.751-4.521-1.777 0-3.394 0.981-4.22 2.56l-0.035 0.068-0.074 0.016c-1.594 0.318-2.755 1.73-2.755 3.357 0 1.888 1.536 3.425 3.423 3.425 0.521 0 1.022-0.119 1.498-0.347l0.071-0.029z"></path>
<path fill="#e1b168" style="fill: var(--color1, #e1b168)" d="M35.281 22.428h-7.541v-3.479l0.18 0.023c0.158 0.019 0.289 0.029 0.415 0.029 0.521 0 1.022-0.119 1.498-0.347l0.071-0.039 0.071 0.032c1.308 0.614 2.809 0.605 4.105-0.029l0.077-0.039 0.074 0.045c0.279 0.167 0.585 0.28 0.916 0.334l0.135 0.023v3.447zM28.061 22.106h6.898v-2.855c-0.289-0.061-0.566-0.164-0.82-0.309-1.34 0.63-2.883 0.64-4.236 0.029-0.498 0.232-1.025 0.347-1.569 0.347-0.087 0-0.177-0.003-0.273-0.013v2.801z"></path>
<path fill="#e1b168" style="fill: var(--color1, #e1b168)" d="M28.312 14.47c-0.090 0-0.161-0.071-0.161-0.161 0-2.093 1.703-3.797 3.796-3.797 0.090 0 0.161 0.071 0.161 0.161s-0.071 0.161-0.161 0.161c-1.916 0-3.475 1.559-3.475 3.476 0 0.090-0.071 0.161-0.161 0.161z"></path>
<path fill="#e1b168" style="fill: var(--color1, #e1b168)" d="M62.207 11.502h-21.68c-0.090 0-0.161-0.071-0.161-0.161s0.071-0.161 0.161-0.161h21.68c0.090 0 0.161 0.071 0.161 0.161s-0.071 0.161-0.161 0.161z"></path>
<path fill="#e1b168" style="fill: var(--color1, #e1b168)" d="M62.207 20.502h-21.68c-0.090 0-0.161-0.071-0.161-0.161s0.071-0.161 0.161-0.161h21.68c0.090 0 0.161 0.071 0.161 0.161s-0.071 0.161-0.161 0.161z"></path>
<path fill="#e1b168" style="fill: var(--color1, #e1b168)" d="M22.494 11.502h-21.68c-0.090 0-0.161-0.071-0.161-0.161s0.071-0.161 0.161-0.161h21.68c0.090 0 0.161 0.071 0.161 0.161s-0.074 0.161-0.161 0.161z"></path>
<path fill="#e1b168" style="fill: var(--color1, #e1b168)" d="M22.494 20.502h-21.68c-0.090 0-0.161-0.071-0.161-0.161s0.071-0.161 0.161-0.161h21.68c0.090 0 0.161 0.071 0.161 0.161s-0.074 0.161-0.161 0.161z"></path>
<path fill="#e1b168" style="fill: var(--color1, #e1b168)" d="M12.919 16.634h-5.561c-0.437 0-0.794-0.357-0.794-0.794s0.357-0.794 0.794-0.794h5.998c0.090 0 0.161 0.071 0.161 0.161s-0.071 0.161-0.161 0.161h-5.998c-0.26 0-0.473 0.212-0.473 0.473s0.212 0.473 0.473 0.473h5.558c0.090 0 0.161 0.071 0.161 0.161s-0.071 0.161-0.158 0.161z"></path>
<path fill="#e1b168" style="fill: var(--color1, #e1b168)" d="M3.822 18.11c-1.688 0-3.063-1.016-3.063-2.267s1.373-2.267 3.063-2.267c1.688 0 3.063 1.016 3.063 2.267s-1.373 2.267-3.063 2.267zM3.822 13.894c-1.511 0-2.742 0.875-2.742 1.945s1.231 1.945 2.742 1.945 2.742-0.875 2.742-1.945c0-1.071-1.228-1.945-2.742-1.945z"></path>
<path fill="#e1b168" style="fill: var(--color1, #e1b168)" d="M55.306 16.634h-5.558c-0.090 0-0.161-0.071-0.161-0.161s0.071-0.161 0.161-0.161h5.558c0.26 0 0.472-0.212 0.472-0.473s-0.212-0.473-0.472-0.473h-5.998c-0.090 0-0.161-0.071-0.161-0.161s0.071-0.161 0.161-0.161h5.998c0.437 0 0.794 0.357 0.794 0.794s-0.357 0.794-0.794 0.794z"></path>
<path fill="#e1b168" style="fill: var(--color1, #e1b168)" d="M58.356 17.344h-1.074c-0.829 0-1.504-0.675-1.504-1.505s0.675-1.505 1.504-1.505h1.074v3.010zM57.282 14.659c-0.652 0-1.183 0.531-1.183 1.183s0.53 1.183 1.183 1.183h0.752v-2.363h-0.752v-0.003z"></path>
<path fill="#e1b168" style="fill: var(--color1, #e1b168)" d="M61.744 14.659h-3.545c-0.090 0-0.161-0.071-0.161-0.161s0.071-0.161 0.161-0.161h3.545c0.090 0 0.161 0.071 0.161 0.161s-0.074 0.161-0.161 0.161z"></path>
<path fill="#e1b168" style="fill: var(--color1, #e1b168)" d="M61.744 16h-3.545c-0.090 0-0.161-0.071-0.161-0.161s0.071-0.161 0.161-0.161h3.545c0.090 0 0.161 0.071 0.161 0.161s-0.074 0.161-0.161 0.161z"></path>
<path fill="#e1b168" style="fill: var(--color1, #e1b168)" d="M61.744 17.344h-3.545c-0.090 0-0.161-0.071-0.161-0.161s0.071-0.161 0.161-0.161h3.545c0.090 0 0.161 0.071 0.161 0.161s-0.074 0.161-0.161 0.161z"></path>
<path fill="#e1b168" style="fill: var(--color1, #e1b168)" d="M21.626 18.11h-2.809c-0.090 0-0.161-0.071-0.161-0.161s0.071-0.161 0.161-0.161h2.809c0.090 0 0.161 0.071 0.161 0.161s-0.071 0.161-0.161 0.161z"></path>
<path fill="#e1b168" style="fill: var(--color1, #e1b168)" d="M21.488 15.714h-5.332c-0.090 0-0.161-0.071-0.161-0.161s0.071-0.161 0.161-0.161h5.332c0.090 0 0.161 0.071 0.161 0.161s-0.071 0.161-0.161 0.161z"></path>
<path fill="#e1b168" style="fill: var(--color1, #e1b168)" d="M21.842 13.319h-2.809c-0.090 0-0.161-0.071-0.161-0.161s0.071-0.161 0.161-0.161h2.809c0.090 0 0.161 0.071 0.161 0.161s-0.071 0.161-0.161 0.161z"></path>
<path fill="#e1b168" style="fill: var(--color1, #e1b168)" d="M21.623 16.91h-4.172c-0.090 0-0.161-0.071-0.161-0.161s0.071-0.161 0.161-0.161h4.172c0.090 0 0.161 0.071 0.161 0.161s-0.074 0.161-0.161 0.161z"></path>
<path fill="#e1b168" style="fill: var(--color1, #e1b168)" d="M21.601 14.499h-4.172c-0.090 0-0.161-0.071-0.161-0.161s0.071-0.161 0.161-0.161h4.172c0.090 0 0.161 0.071 0.161 0.161s-0.071 0.161-0.161 0.161z"></path>
<path fill="#e1b168" style="fill: var(--color1, #e1b168)" d="M44.2 13.605h-2.809c-0.090 0-0.161-0.071-0.161-0.161s0.071-0.161 0.161-0.161h2.809c0.090 0 0.161 0.071 0.161 0.161s-0.071 0.161-0.161 0.161z"></path>
<path fill="#e1b168" style="fill: var(--color1, #e1b168)" d="M46.865 16h-5.332c-0.090 0-0.161-0.071-0.161-0.161s0.071-0.161 0.161-0.161h5.332c0.090 0 0.161 0.071 0.161 0.161s-0.071 0.161-0.161 0.161z"></path>
<path fill="#e1b168" style="fill: var(--color1, #e1b168)" d="M43.985 18.396h-2.809c-0.090 0-0.161-0.071-0.161-0.161s0.071-0.161 0.161-0.161h2.809c0.090 0 0.161 0.071 0.161 0.161s-0.071 0.161-0.161 0.161z"></path>
<path fill="#e1b168" style="fill: var(--color1, #e1b168)" d="M45.569 14.804h-4.172c-0.090 0-0.161-0.071-0.161-0.161s0.071-0.161 0.161-0.161h4.172c0.090 0 0.161 0.071 0.161 0.161s-0.071 0.161-0.161 0.161z"></path>
<path fill="#e1b168" style="fill: var(--color1, #e1b168)" d="M45.592 17.216h-4.172c-0.090 0-0.161-0.071-0.161-0.161s0.071-0.161 0.161-0.161h4.172c0.090 0 0.161 0.071 0.161 0.161s-0.074 0.161-0.161 0.161z"></path>
<path fill="#e1b168" style="fill: var(--color1, #e1b168)" d="M20.906 23.859l-1.604 0.412-0.254-0.402 0.649-0.768-0.98 0.244-0.254-0.402 1.058-1.273 0.244 0.389-0.681 0.807 1.029-0.257 0.219 0.347-0.688 0.81 1.035-0.264 0.228 0.357z"></path>
<path fill="#e1b168" style="fill: var(--color1, #e1b168)" d="M21.34 26.11l-0.251 0.235-0.868-0.92 1.148-1.080 0.849 0.9-0.251 0.235-0.543-0.579-0.199 0.183 0.479 0.508-0.241 0.228-0.479-0.508-0.209 0.196 0.566 0.601z"></path>
<path fill="#e1b168" style="fill: var(--color1, #e1b168)" d="M22.809 25.779l0.35 0.276-0.759 0.958 0.588 0.466-0.218 0.277-0.939-0.743 0.977-1.235z"></path>
<path fill="#e1b168" style="fill: var(--color1, #e1b168)" d="M23.87 28.377c-0.080-0.125-0.122-0.26-0.125-0.405s0.032-0.286 0.113-0.424c0.077-0.138 0.18-0.241 0.305-0.312s0.264-0.106 0.415-0.1c0.148 0.003 0.296 0.048 0.437 0.129 0.125 0.071 0.225 0.158 0.302 0.26s0.122 0.212 0.141 0.334l-0.376 0.080c-0.029-0.158-0.106-0.273-0.232-0.344-0.074-0.042-0.151-0.064-0.225-0.064-0.077 0-0.148 0.019-0.212 0.061s-0.119 0.1-0.164 0.177c-0.045 0.077-0.068 0.154-0.068 0.232s0.016 0.148 0.058 0.215c0.039 0.064 0.096 0.119 0.17 0.161 0.125 0.071 0.264 0.080 0.415 0.023l0.119 0.363c-0.113 0.045-0.235 0.061-0.36 0.048s-0.251-0.055-0.376-0.125c-0.148-0.081-0.26-0.183-0.337-0.309z"></path>
<path fill="#e1b168" style="fill: var(--color1, #e1b168)" d="M26.030 29.444c-0.1-0.113-0.167-0.238-0.196-0.383-0.029-0.142-0.016-0.286 0.035-0.434s0.135-0.267 0.251-0.357c0.113-0.090 0.244-0.148 0.392-0.17s0.302-0.003 0.46 0.051c0.158 0.055 0.286 0.142 0.386 0.251 0.1 0.113 0.167 0.238 0.196 0.383s0.016 0.286-0.035 0.434-0.135 0.267-0.251 0.357c-0.113 0.093-0.244 0.148-0.392 0.17s-0.302 0.003-0.456-0.051c-0.161-0.058-0.289-0.142-0.389-0.251zM26.763 29.367c0.074-0.013 0.138-0.045 0.199-0.096 0.058-0.051 0.103-0.119 0.132-0.203s0.039-0.164 0.026-0.241-0.042-0.145-0.090-0.199c-0.048-0.055-0.109-0.1-0.183-0.125s-0.148-0.032-0.222-0.019-0.138 0.045-0.199 0.096c-0.061 0.051-0.103 0.119-0.132 0.202s-0.039 0.164-0.026 0.241c0.013 0.077 0.042 0.145 0.090 0.202s0.109 0.1 0.183 0.125c0.074 0.026 0.148 0.029 0.222 0.016z"></path>
<path fill="#e1b168" style="fill: var(--color1, #e1b168)" d="M29.665 30.438l0.122-0.826-0.505 0.611-0.196-0.029-0.299-0.711-0.125 0.804-0.408-0.064 0.241-1.556 0.363 0.055 0.408 0.984 0.672-0.817 0.363 0.055-0.235 1.556-0.402-0.061z"></path>
<path fill="#e1b168" style="fill: var(--color1, #e1b168)" d="M32.426 30.174l0.006 0.344-1.263 0.026-0.032-1.576 1.234-0.026 0.007 0.344-0.794 0.016 0.006 0.267 0.701-0.016 0.006 0.335-0.701 0.016 0.006 0.289 0.823-0.019z"></path>
<path fill="#e1b168" style="fill: var(--color1, #e1b168)" d="M34.789 28.904l-0.466 0.126-0.093-0.341 1.363-0.367 0.093 0.341-0.466 0.125 0.318 1.18-0.431 0.116-0.318-1.18z"></path>
<path fill="#e1b168" style="fill: var(--color1, #e1b168)" d="M37.158 29.325c-0.151-0.010-0.286-0.055-0.405-0.138-0.122-0.080-0.212-0.193-0.276-0.334s-0.087-0.286-0.071-0.431c0.016-0.145 0.071-0.277 0.164-0.396s0.212-0.212 0.363-0.283c0.151-0.071 0.302-0.1 0.453-0.090s0.286 0.055 0.405 0.138c0.122 0.084 0.212 0.193 0.276 0.338s0.087 0.286 0.071 0.431c-0.016 0.145-0.071 0.276-0.164 0.395s-0.212 0.212-0.367 0.283c-0.148 0.068-0.299 0.096-0.45 0.087zM37.63 28.759c0.042-0.061 0.067-0.129 0.074-0.209 0.006-0.077-0.010-0.158-0.045-0.238s-0.087-0.145-0.148-0.19c-0.061-0.045-0.132-0.074-0.206-0.080s-0.148 0.006-0.219 0.039c-0.074 0.032-0.132 0.081-0.174 0.142s-0.068 0.129-0.074 0.209c-0.007 0.080 0.010 0.158 0.045 0.238s0.087 0.145 0.148 0.19c0.061 0.045 0.132 0.074 0.206 0.081s0.148-0.007 0.219-0.039c0.074-0.032 0.132-0.080 0.174-0.141z"></path>
<path fill="#e1b168" style="fill: var(--color1, #e1b168)" d="M40.623 27.28c-0.148 0.032-0.289 0.023-0.427-0.023s-0.257-0.129-0.357-0.247c-0.1-0.119-0.161-0.251-0.183-0.396s-0.006-0.286 0.051-0.424c0.055-0.138 0.148-0.264 0.276-0.37s0.264-0.177 0.411-0.209c0.148-0.032 0.289-0.026 0.428 0.023s0.257 0.129 0.357 0.248c0.1 0.119 0.161 0.251 0.183 0.395s0.007 0.286-0.051 0.424c-0.055 0.138-0.148 0.264-0.276 0.37-0.125 0.109-0.264 0.177-0.411 0.209zM40.925 26.608c0.026-0.071 0.029-0.145 0.016-0.219-0.016-0.077-0.051-0.148-0.109-0.215s-0.122-0.116-0.193-0.145c-0.071-0.029-0.145-0.035-0.218-0.023s-0.142 0.045-0.203 0.096c-0.061 0.051-0.103 0.113-0.129 0.183s-0.029 0.145-0.016 0.219c0.016 0.077 0.051 0.148 0.109 0.215s0.122 0.116 0.193 0.145c0.074 0.029 0.145 0.035 0.219 0.023s0.141-0.045 0.202-0.096c0.061-0.051 0.106-0.113 0.129-0.183z"></path>
<path fill="#e1b168" style="fill: var(--color1, #e1b168)" d="M42.397 25.502c-0.18 0.019-0.36-0.048-0.54-0.199l-0.669-0.559 0.286-0.341 0.659 0.55c0.193 0.161 0.354 0.164 0.482 0.013 0.125-0.151 0.093-0.309-0.1-0.47l-0.659-0.55 0.283-0.338 0.669 0.559c0.18 0.151 0.276 0.315 0.292 0.498s-0.051 0.363-0.202 0.54c-0.158 0.18-0.321 0.277-0.501 0.296z"></path>
<path fill="#e1b168" style="fill: var(--color1, #e1b168)" d="M43.943 22.923l-0.122 0.209 0.36 0.212-0.225 0.386-1.36-0.794 0.363-0.624c0.071-0.122 0.154-0.219 0.248-0.286s0.193-0.103 0.299-0.109c0.103-0.006 0.209 0.023 0.309 0.081s0.17 0.132 0.218 0.219c0.045 0.090 0.064 0.186 0.058 0.299l0.598-0.039-0.241 0.412-0.505 0.035zM43.406 22.367c-0.058 0.019-0.109 0.071-0.157 0.148l-0.125 0.215 0.399 0.232 0.125-0.215c0.045-0.081 0.064-0.148 0.051-0.209-0.010-0.061-0.048-0.109-0.112-0.145s-0.122-0.045-0.18-0.026z"></path>
<path fill="#e1b168" style="fill: var(--color1, #e1b168)" d="M18.605 7.161c0.019 0.158 0.096 0.328 0.238 0.508 0.006 0.003 0.003 0.013-0.007 0.026s-0.019 0.016-0.026 0.013c-0.084-0.077-0.193-0.174-0.328-0.296-0.135-0.119-0.238-0.206-0.309-0.26-0.013-0.010-0.013-0.019-0.003-0.032s0.019-0.016 0.032-0.006c0.051 0.039 0.125-0.006 0.222-0.138 0.158-0.196 0.334-0.424 0.537-0.695 0.103-0.138 0.209-0.283 0.318-0.441l0.174-0.241c0.068-0.087 0.109-0.158 0.129-0.206s0.016-0.093-0.010-0.132c-0.007-0.010-0.007-0.019 0-0.032 0.010-0.013 0.019-0.013 0.026-0.006 0.068 0.061 0.17 0.151 0.312 0.267s0.257 0.209 0.347 0.277c0.006 0.006 0.006 0.013-0.003 0.026s-0.019 0.019-0.026 0.016c-0.196-0.109-0.37-0.154-0.518-0.132s-0.28 0.106-0.389 0.254c-0.048 0.064-0.080 0.119-0.090 0.158-0.013 0.039-0.007 0.077 0.013 0.109 0.022 0.032 0.064 0.071 0.125 0.119l1.607 1.206c0.071 0.055 0.129 0.087 0.174 0.096 0.042 0.010 0.087 0 0.129-0.035 0.042-0.032 0.1-0.096 0.167-0.186 0.007-0.006 0.016-0.006 0.029 0.006 0.013 0.010 0.019 0.019 0.013 0.026-0.061 0.080-0.109 0.145-0.148 0.19l-0.219 0.283-0.199 0.273c-0.035 0.051-0.083 0.119-0.148 0.206-0.003 0.003-0.013 0.003-0.026-0.010s-0.019-0.019-0.016-0.023c0.067-0.090 0.113-0.161 0.132-0.215 0.019-0.051 0.019-0.096-0.003-0.138s-0.067-0.087-0.138-0.138l-1.614-1.209c-0.061-0.045-0.109-0.074-0.145-0.080-0.035-0.010-0.071-0.003-0.106 0.019s-0.074 0.064-0.122 0.125c-0.106 0.145-0.148 0.293-0.132 0.45z"></path>
<path fill="#e1b168" style="fill: var(--color1, #e1b168)" d="M24.265 4.798c0.010 0.013 0.013 0.022 0.007 0.029-0.074 0.064-0.138 0.116-0.186 0.151l-0.244 0.203-0.28 0.241c-0.039 0.035-0.090 0.084-0.158 0.138-0.006 0.006-0.016 0.003-0.026-0.013-0.010-0.013-0.013-0.022-0.007-0.029 0.084-0.071 0.142-0.129 0.17-0.17s0.035-0.087 0.023-0.129c-0.013-0.042-0.048-0.096-0.106-0.167l-0.649-0.768-1.141 0.965 0.649 0.768c0.055 0.068 0.106 0.109 0.145 0.132 0.039 0.019 0.084 0.019 0.132 0 0.048-0.022 0.116-0.068 0.199-0.138 0.003-0.003 0.013 0 0.022 0.013 0.013 0.013 0.016 0.022 0.010 0.026-0.074 0.064-0.135 0.113-0.18 0.145l-0.28 0.231-0.241 0.209c-0.039 0.039-0.1 0.090-0.174 0.151-0.003 0.003-0.013-0-0.022-0.013s-0.013-0.022-0.010-0.026c0.080-0.068 0.135-0.122 0.161-0.167 0.029-0.042 0.035-0.087 0.023-0.129-0.013-0.045-0.048-0.1-0.106-0.164l-1.302-1.54c-0.058-0.068-0.106-0.109-0.145-0.129s-0.084-0.019-0.132 0c-0.048 0.019-0.109 0.061-0.19 0.129-0.003 0.003-0.013 0-0.023-0.013-0.013-0.013-0.016-0.022-0.010-0.026l0.18-0.145c0.106-0.080 0.186-0.148 0.244-0.196 0.077-0.064 0.167-0.145 0.27-0.241l0.174-0.151c0.003-0.003 0.013 0 0.022 0.013s0.013 0.023 0.010 0.026c-0.084 0.071-0.138 0.129-0.164 0.174-0.029 0.045-0.035 0.090-0.022 0.135s0.048 0.1 0.103 0.167l0.575 0.678 1.141-0.965-0.575-0.678c-0.055-0.068-0.106-0.109-0.145-0.132-0.042-0.019-0.087-0.022-0.135-0.003s-0.116 0.064-0.199 0.135c-0.006 0.006-0.016 0.003-0.026-0.013-0.013-0.013-0.013-0.022-0.007-0.029l0.161-0.132c0.109-0.087 0.206-0.164 0.289-0.232 0.061-0.051 0.138-0.122 0.238-0.212l0.18-0.158c0.006-0.006 0.016-0.003 0.026 0.013 0.013 0.013 0.013 0.022 0.006 0.029-0.080 0.068-0.132 0.122-0.161 0.167-0.026 0.042-0.032 0.087-0.019 0.129s0.048 0.096 0.103 0.164l1.302 1.54c0.055 0.067 0.106 0.109 0.145 0.132 0.042 0.022 0.084 0.022 0.128 0 0.045-0.019 0.109-0.064 0.19-0.132 0.016-0.010 0.026-0.006 0.035 0.006z"></path>
<path fill="#e1b168" style="fill: var(--color1, #e1b168)" d="M25.863 3.232c0.006-0.003 0.016-0.006 0.026-0.006s0.013 0.003 0.016 0.003c0.080 0.209 0.161 0.392 0.247 0.556 0.010 0.019 0.016 0.039 0.013 0.051s-0.016 0.026-0.039 0.039l-1.668 0.894c-0.007 0.003-0.016 0-0.023-0.016-0.010-0.016-0.010-0.026 0-0.029 0.087-0.048 0.148-0.087 0.18-0.122s0.045-0.074 0.042-0.119c-0.003-0.045-0.029-0.106-0.071-0.183l-0.951-1.778c-0.042-0.077-0.077-0.129-0.113-0.158-0.032-0.029-0.074-0.039-0.122-0.032-0.048 0.010-0.116 0.035-0.199 0.080-0.007 0.003-0.016 0-0.023-0.016-0.010-0.016-0.010-0.026 0-0.029l1.598-0.855c0.026-0.013 0.045-0.010 0.058 0.013l0.276 0.495c0.003 0.006-0.003 0.013-0.016 0.022s-0.023 0.013-0.029 0.006c-0.219-0.26-0.473-0.309-0.768-0.151l-0.154 0.084c-0.093 0.048-0.148 0.1-0.17 0.154-0.019 0.055-0.010 0.122 0.032 0.199l0.421 0.785 0.37-0.199c0.283-0.151 0.373-0.322 0.27-0.511-0.003-0.006 0-0.016 0.016-0.022s0.023-0.006 0.026 0l0.177 0.338 0.1 0.18c0.048 0.080 0.087 0.145 0.116 0.196 0.003 0.006-0.003 0.013-0.019 0.019-0.016 0.010-0.026 0.010-0.026 0.006-0.119-0.222-0.321-0.254-0.608-0.1l-0.376 0.19 0.466 0.871c0.045 0.084 0.093 0.135 0.141 0.151 0.051 0.016 0.116 0.003 0.196-0.042l0.19-0.1c0.344-0.183 0.473-0.466 0.386-0.849-0.003-0.006 0.003-0.010 0.013-0.016z"></path>
<path fill="#e1b168" style="fill: var(--color1, #e1b168)" d="M27.087 0.891c-0.087 0.132-0.135 0.312-0.145 0.54 0 0.006-0.006 0.010-0.023 0.013s-0.026 0-0.026-0.006c-0.013-0.113-0.035-0.257-0.061-0.434s-0.048-0.309-0.071-0.399c-0.003-0.013 0.003-0.022 0.019-0.026s0.026 0 0.029 0.016c0.016 0.061 0.1 0.074 0.26 0.039 0.244-0.048 0.53-0.109 0.855-0.186 0.167-0.039 0.344-0.084 0.53-0.132l0.286-0.071c0.109-0.026 0.186-0.051 0.232-0.077s0.071-0.061 0.077-0.106c0-0.013 0.006-0.019 0.023-0.022 0.013-0.003 0.023 0 0.026 0.013 0.013 0.090 0.035 0.225 0.068 0.405s0.061 0.325 0.087 0.437c0.003 0.010-0.003 0.016-0.019 0.019s-0.026 0-0.032-0.006c-0.080-0.212-0.183-0.357-0.312-0.434-0.129-0.080-0.283-0.096-0.46-0.058-0.080 0.019-0.135 0.039-0.17 0.061s-0.055 0.055-0.058 0.093c-0.003 0.039 0.003 0.096 0.019 0.174l0.453 1.958c0.019 0.087 0.045 0.148 0.071 0.187 0.026 0.035 0.067 0.055 0.119 0.058 0.055 0.003 0.138-0.010 0.247-0.035 0.010-0.003 0.013 0.006 0.019 0.022 0.003 0.016 0 0.026-0.006 0.029-0.1 0.022-0.177 0.039-0.235 0.051l-0.35 0.077-0.331 0.080c-0.058 0.016-0.141 0.039-0.244 0.061-0.007 0-0.010-0.006-0.013-0.022s-0.003-0.026 0.003-0.026c0.109-0.026 0.19-0.051 0.238-0.077s0.077-0.061 0.087-0.106 0.003-0.109-0.016-0.196l-0.456-1.965c-0.016-0.074-0.035-0.125-0.058-0.158s-0.055-0.048-0.093-0.055c-0.039-0.006-0.1 0-0.174 0.019-0.177 0.026-0.305 0.113-0.395 0.244z"></path>
<path fill="#e1b168" style="fill: var(--color1, #e1b168)" d="M32.584 2.682c0 0.016-0.007 0.026-0.023 0.026-0.055 0.003-0.145 0.003-0.267 0s-0.212 0-0.267 0c-0.074 0.003-0.158 0.010-0.257 0.016-0.1 0.010-0.174 0.016-0.232 0.016-0.013 0-0.019-0.010-0.019-0.026s0.006-0.026 0.016-0.026c0.083-0.003 0.145-0.016 0.183-0.035s0.058-0.051 0.055-0.096c-0.003-0.045-0.029-0.116-0.080-0.219l-0.505-0.939-0.787 0.026-0.309 0.765c-0.035 0.087-0.051 0.167-0.048 0.238 0.003 0.103 0.042 0.177 0.116 0.228 0.074 0.048 0.177 0.074 0.309 0.068 0.013 0 0.023 0.006 0.023 0.026 0 0.016-0.006 0.026-0.019 0.026-0.051 0.003-0.129 0.003-0.228 0-0.109-0.003-0.206 0-0.289 0-0.077 0.003-0.17 0.010-0.273 0.019-0.093 0.010-0.17 0.016-0.232 0.016-0.013 0-0.022-0.006-0.022-0.026 0-0.016 0.006-0.026 0.022-0.026 0.081-0.003 0.148-0.022 0.203-0.055 0.055-0.035 0.106-0.093 0.154-0.177 0.051-0.084 0.106-0.209 0.174-0.376l0.861-2.142c0.013-0.003 0.026-0.010 0.048-0.010 0.019 0 0.032 0.003 0.035 0.013l1.141 2.116c0.109 0.206 0.199 0.347 0.27 0.421s0.145 0.109 0.225 0.106c0.013 0 0.019 0.006 0.023 0.026zM30.449 1.318l0.688-0.022-0.386-0.72-0.302 0.743z"></path>
<path fill="#e1b168" style="fill: var(--color1, #e1b168)" d="M33.532 0.92c0.039 0.090 0.093 0.17 0.164 0.244 0.067 0.074 0.164 0.161 0.286 0.267 0.132 0.116 0.235 0.212 0.309 0.293s0.132 0.174 0.177 0.28c0.042 0.106 0.055 0.222 0.032 0.35-0.022 0.148-0.083 0.27-0.177 0.373s-0.215 0.174-0.367 0.215c-0.151 0.042-0.315 0.048-0.492 0.019-0.122-0.019-0.241-0.055-0.363-0.106s-0.212-0.106-0.273-0.164c-0.023-0.022-0.032-0.051-0.029-0.090l0.080-0.659v-0.003c0.003-0.013 0.010-0.016 0.026-0.016 0.013 0 0.023 0.006 0.023 0.019 0.055 0.254 0.132 0.466 0.231 0.637 0.096 0.17 0.241 0.273 0.431 0.302 0.122 0.019 0.231 0.003 0.325-0.051s0.154-0.161 0.18-0.318c0.019-0.125 0.010-0.241-0.029-0.344s-0.096-0.193-0.167-0.27-0.17-0.17-0.296-0.286c-0.122-0.113-0.219-0.203-0.286-0.28s-0.122-0.161-0.161-0.26-0.051-0.209-0.032-0.331c0.026-0.148 0.087-0.267 0.186-0.357s0.222-0.148 0.363-0.177c0.141-0.029 0.286-0.032 0.431-0.006 0.096 0.016 0.193 0.042 0.286 0.074 0.093 0.035 0.174 0.071 0.235 0.109 0.026 0.013 0.039 0.026 0.045 0.042 0.006 0.013 0.010 0.032 0.006 0.051l-0.080 0.588c0 0.010-0.010 0.013-0.026 0.016s-0.026-0.003-0.026-0.016c-0.029-0.183-0.080-0.354-0.154-0.511s-0.206-0.251-0.399-0.283c-0.129-0.019-0.238 0-0.325 0.061s-0.141 0.158-0.164 0.286c-0.023 0.113-0.010 0.209 0.029 0.302z"></path>
<path fill="#e1b168" style="fill: var(--color1, #e1b168)" d="M35.782 0.878c-0.145 0.064-0.283 0.19-0.415 0.376-0.003 0.006-0.010 0.006-0.026 0s-0.019-0.013-0.019-0.019c0.048-0.103 0.109-0.235 0.186-0.399s0.125-0.286 0.158-0.373c0.006-0.013 0.016-0.019 0.029-0.013 0.016 0.006 0.019 0.016 0.016 0.029-0.023 0.061 0.045 0.119 0.196 0.174 0.231 0.093 0.505 0.196 0.82 0.309 0.161 0.058 0.334 0.116 0.514 0.177l0.28 0.096c0.103 0.039 0.183 0.058 0.235 0.061s0.093-0.013 0.122-0.048c0.006-0.010 0.016-0.013 0.029-0.006s0.019 0.013 0.016 0.022c-0.039 0.080-0.093 0.209-0.164 0.376-0.071 0.17-0.125 0.309-0.164 0.415-0.003 0.010-0.013 0.010-0.026 0.003-0.016-0.006-0.023-0.013-0.023-0.022 0.048-0.222 0.039-0.399-0.026-0.534s-0.183-0.235-0.357-0.296c-0.077-0.029-0.135-0.042-0.177-0.042s-0.074 0.016-0.1 0.045c-0.026 0.029-0.051 0.080-0.077 0.154l-0.681 1.891c-0.029 0.084-0.045 0.148-0.042 0.193s0.026 0.080 0.071 0.113c0.045 0.032 0.119 0.067 0.228 0.106 0.010 0.003 0.010 0.013 0.003 0.029s-0.013 0.022-0.023 0.019c-0.096-0.035-0.17-0.064-0.225-0.087l-0.334-0.125-0.321-0.113c-0.058-0.019-0.138-0.045-0.241-0.080-0.006-0.003-0.006-0.013 0-0.029s0.013-0.022 0.016-0.022c0.106 0.039 0.186 0.061 0.244 0.064 0.055 0.003 0.1-0.010 0.132-0.042s0.064-0.090 0.093-0.174l0.685-1.9c0.026-0.071 0.039-0.125 0.035-0.164s-0.019-0.071-0.048-0.096c-0.032-0.026-0.083-0.051-0.157-0.080-0.161-0.051-0.318-0.051-0.463 0.013z"></path>
<path fill="#e1b168" style="fill: var(--color1, #e1b168)" d="M39.192 4.444c0.007 0.003 0.013 0.010 0.016 0.019s0.006 0.013 0.003 0.016c-0.138 0.177-0.254 0.341-0.347 0.498-0.013 0.019-0.023 0.032-0.035 0.035s-0.029 0-0.051-0.013l-1.63-0.961c-0.006-0.003-0.006-0.013 0.003-0.029s0.016-0.019 0.026-0.016c0.084 0.051 0.151 0.080 0.196 0.090s0.087 0 0.122-0.026c0.035-0.029 0.074-0.080 0.119-0.154l1.025-1.74c0.045-0.074 0.071-0.135 0.077-0.177s-0.006-0.084-0.039-0.122-0.090-0.080-0.17-0.129c-0.007-0.003-0.007-0.013 0.003-0.029s0.016-0.019 0.026-0.016l1.562 0.923c0.026 0.016 0.032 0.032 0.016 0.055l-0.279 0.492c-0.003 0.006-0.013 0.003-0.026 0-0.016-0.006-0.023-0.013-0.019-0.022 0.109-0.322 0.019-0.566-0.27-0.736l-0.151-0.087c-0.090-0.055-0.164-0.074-0.219-0.064-0.058 0.010-0.109 0.055-0.154 0.132l-0.453 0.765 0.36 0.212c0.276 0.164 0.469 0.151 0.575-0.035 0.003-0.006 0.013-0.006 0.029 0 0.013 0.010 0.019 0.016 0.013 0.022l-0.196 0.325-0.1 0.18c-0.042 0.084-0.077 0.151-0.106 0.199-0.003 0.006-0.013 0.003-0.026-0.006-0.016-0.010-0.023-0.016-0.019-0.019 0.125-0.215 0.051-0.405-0.228-0.572l-0.357-0.209-0.502 0.852c-0.048 0.084-0.067 0.148-0.055 0.199s0.058 0.1 0.138 0.148l0.183 0.109c0.334 0.199 0.643 0.161 0.926-0.113-0.003-0.003 0.003 0 0.013 0.003z"></path>
<path fill="#e1b168" style="fill: var(--color1, #e1b168)" d="M41.301 7.129c-0.013 0.013-0.023 0.013-0.035 0.003-0.042-0.039-0.106-0.1-0.193-0.183-0.087-0.087-0.151-0.148-0.193-0.186-0.055-0.048-0.119-0.103-0.196-0.167-0.077-0.061-0.135-0.113-0.177-0.148-0.010-0.006-0.006-0.019 0.003-0.032 0.013-0.013 0.023-0.016 0.032-0.006 0.061 0.058 0.116 0.090 0.158 0.103s0.077 0.003 0.106-0.029c0.029-0.032 0.061-0.103 0.093-0.215l0.289-1.026-0.585-0.531-0.755 0.334c-0.087 0.039-0.154 0.084-0.199 0.138-0.068 0.074-0.093 0.158-0.074 0.244s0.077 0.174 0.174 0.264c0.010 0.010 0.010 0.022 0 0.035-0.013 0.013-0.023 0.013-0.032 0.003-0.039-0.035-0.093-0.087-0.164-0.158-0.077-0.077-0.148-0.145-0.206-0.199-0.058-0.051-0.129-0.113-0.209-0.177-0.074-0.058-0.132-0.106-0.177-0.148-0.010-0.010-0.010-0.022 0-0.035 0.013-0.013 0.022-0.016 0.032-0.006 0.061 0.055 0.122 0.090 0.183 0.103s0.141 0.006 0.235-0.019c0.093-0.026 0.222-0.077 0.386-0.148l2.109-0.936c0.010-0.003 0.023 0.003 0.039 0.016s0.019 0.026 0.016 0.032l-0.652 2.315c-0.064 0.225-0.096 0.386-0.1 0.489 0 0.103 0.026 0.18 0.087 0.235 0.016 0.010 0.016 0.022 0.006 0.035zM40.716 4.666l0.511 0.463 0.222-0.785-0.733 0.322z"></path>
<path fill="#e1b168" style="fill: var(--color1, #e1b168)" d="M43.226 5.73c-0.158-0.026-0.341 0-0.553 0.084-0.003 0.003-0.013 0-0.023-0.013s-0.010-0.022-0.003-0.026c0.096-0.058 0.222-0.135 0.376-0.231 0.151-0.096 0.264-0.17 0.334-0.225 0.013-0.010 0.023-0.006 0.032 0.006s0.010 0.022-0.003 0.032c-0.051 0.039-0.029 0.122 0.068 0.254 0.141 0.206 0.315 0.444 0.514 0.711 0.103 0.138 0.212 0.283 0.334 0.431l0.18 0.235c0.067 0.090 0.119 0.148 0.161 0.18s0.084 0.042 0.129 0.026c0.010-0.003 0.022 0 0.029 0.010 0.010 0.013 0.006 0.019 0 0.029-0.077 0.048-0.193 0.122-0.344 0.225s-0.273 0.186-0.363 0.254c-0.007 0.006-0.016 0-0.026-0.013s-0.013-0.022-0.006-0.029c0.161-0.158 0.254-0.312 0.273-0.46s-0.023-0.299-0.135-0.444c-0.048-0.064-0.090-0.109-0.125-0.132s-0.071-0.029-0.109-0.016-0.087 0.039-0.151 0.087l-1.61 1.203c-0.071 0.055-0.119 0.1-0.141 0.138s-0.023 0.084-0.003 0.135c0.019 0.051 0.064 0.122 0.132 0.212 0.006 0.006 0 0.016-0.013 0.026s-0.023 0.013-0.029 0.006c-0.061-0.080-0.106-0.148-0.142-0.196l-0.209-0.289-0.206-0.27c-0.039-0.048-0.090-0.113-0.154-0.199-0.003-0.003 0.003-0.013 0.016-0.022s0.023-0.013 0.026-0.010c0.067 0.090 0.122 0.154 0.167 0.186 0.045 0.035 0.087 0.048 0.132 0.035 0.045-0.010 0.103-0.042 0.174-0.093l1.617-1.206c0.061-0.045 0.1-0.084 0.119-0.116s0.023-0.068 0.013-0.106c-0.010-0.039-0.039-0.090-0.087-0.154-0.103-0.145-0.231-0.228-0.389-0.254z"></path>
</symbol>
<symbol id="icon-insta" viewBox="0 0 33 32">
<path  d="M21.403 1.957c1.346 0.004 2.636 0.521 3.588 1.437s1.489 2.159 1.493 3.455v9.785c-0.004 1.297-0.541 2.539-1.493 3.455s-2.242 1.433-3.588 1.437h-10.161c-1.346-0.004-2.636-0.521-3.588-1.437s-1.489-2.159-1.493-3.455v-9.785c0.004-1.296 0.541-2.539 1.493-3.455s2.242-1.433 3.588-1.437h10.161zM21.403 0h-10.161c-3.912 0-7.113 3.082-7.113 6.85v9.785c0 3.767 3.201 6.85 7.113 6.85h10.161c3.912 0 7.113-3.082 7.113-6.85v-9.785c0-3.767-3.201-6.85-7.113-6.85z"></path>
<path  d="M22.927 6.85c-0.302 0-0.596-0.086-0.847-0.247s-0.446-0.391-0.561-0.659c-0.115-0.268-0.146-0.563-0.087-0.848s0.204-0.546 0.417-0.752 0.485-0.345 0.78-0.402c0.296-0.057 0.602-0.028 0.881 0.084s0.517 0.299 0.684 0.541c0.167 0.241 0.257 0.525 0.257 0.815 0 0.193-0.039 0.384-0.115 0.562s-0.189 0.34-0.33 0.477-0.31 0.244-0.495 0.318c-0.185 0.074-0.383 0.111-0.584 0.111zM16.323 7.828c0.804 0 1.59 0.23 2.258 0.66s1.189 1.041 1.497 1.757c0.308 0.715 0.388 1.502 0.231 2.261s-0.544 1.457-1.112 2.004-1.293 0.92-2.081 1.071c-0.788 0.151-1.606 0.074-2.348-0.223s-1.378-0.798-1.824-1.442c-0.447-0.644-0.685-1.4-0.685-2.175 0.001-1.038 0.43-2.033 1.192-2.767s1.795-1.147 2.873-1.148zM16.323 5.871c-1.206 0-2.385 0.344-3.387 0.989s-1.784 1.562-2.246 2.635c-0.461 1.073-0.582 2.253-0.347 3.392s0.816 2.185 1.669 3.006c0.853 0.821 1.939 1.38 3.122 1.607s2.409 0.11 3.523-0.334 2.066-1.197 2.736-2.162c0.67-0.965 1.027-2.101 1.027-3.262 0-1.557-0.642-3.050-1.786-4.151s-2.694-1.72-4.311-1.72z"></path>
</symbol>
<symbol id="icon-facebook" viewBox="0 0 38 32">
<path  d="M32.517 2.648c-1.048 0.455-2.156 0.755-3.291 0.89 1.192-0.698 2.089-1.807 2.521-3.119-1.127 0.659-2.358 1.121-3.64 1.367-0.54-0.566-1.189-1.016-1.909-1.323s-1.494-0.465-2.276-0.463c-3.167 0-5.729 2.525-5.729 5.639-0.002 0.433 0.047 0.865 0.148 1.286-2.271-0.106-4.494-0.686-6.528-1.701s-3.834-2.443-5.284-4.194c-0.509 0.858-0.778 1.837-0.779 2.834 0 1.955 1.020 3.683 2.56 4.696-0.913-0.022-1.806-0.263-2.606-0.704v0.070c0 2.735 1.978 5.010 4.597 5.528-0.492 0.131-1 0.198-1.509 0.198-0.362 0.001-0.722-0.034-1.077-0.105 0.728 2.24 2.847 3.87 5.356 3.916-2.039 1.572-4.543 2.421-7.118 2.415-0.457-0.001-0.914-0.028-1.367-0.082 2.619 1.672 5.664 2.557 8.771 2.549 10.553 0 16.319-8.595 16.319-16.049 0-0.244-0.006-0.489-0.018-0.727 1.119-0.796 2.087-1.785 2.859-2.921z"></path>
</symbol>
<symbol id="icon-linkedin" viewBox="0 0 33 32">
<path  d="M16.315 0c-6.628 0-12.003 5.372-12.003 11.997 0 4.911 2.958 9.132 7.186 10.99-0.032-0.835-0.005-1.842 0.209-2.753 0.23-0.975 1.543-6.54 1.543-6.54s-0.386-0.766-0.386-1.896c0-1.778 1.029-3.107 2.315-3.107 1.093 0 1.618 0.819 1.618 1.8 0 1.098-0.702 2.737-1.061 4.258-0.3 1.275 0.638 2.308 1.897 2.308 2.272 0 3.805-2.919 3.805-6.379 0-2.63-1.774-4.595-4.994-4.595-3.638 0-5.91 2.715-5.91 5.747 0 1.044 0.311 1.784 0.793 2.351 0.22 0.262 0.252 0.37 0.171 0.669-0.059 0.22-0.188 0.75-0.246 0.964-0.080 0.305-0.327 0.412-0.6 0.3-1.677-0.685-2.459-2.517-2.459-4.585 0-3.406 2.877-7.493 8.579-7.493 4.581 0 7.598 3.315 7.598 6.872 0 4.708-2.62 8.221-6.478 8.221-1.297 0-2.513-0.702-2.931-1.494 0 0-0.697 2.764-0.847 3.299-0.252 0.927-0.75 1.848-1.206 2.571 1.105 0.326 2.251 0.492 3.402 0.493 6.628 0 12.003-5.372 12.003-11.997s-5.369-12.003-11.997-12.003z"></path>
</symbol>
<symbol id="icon-p" viewBox="0 0 33 32">
<path  d="M28.516 11.742c0-6.484-5.46-11.742-12.194-11.742s-12.194 5.258-12.194 11.742c0 5.86 4.458 10.718 10.288 11.6v-8.205h-3.097v-3.395h3.097v-2.587c0-2.942 1.821-4.569 4.606-4.569 1.334 0 2.73 0.23 2.73 0.23v2.89h-1.538c-1.514 0-1.987 0.905-1.987 1.835v2.202h3.381l-0.54 3.395h-2.841v8.206c5.83-0.881 10.288-5.739 10.288-11.601z"></path>
</symbol>
<symbol id="icon-signature" viewBox="0 0 58 32">
<path d="M16.577 15.325c0.138-0.023 0.242 0.023 0.311 0.138 0.081 0.104 0.098 0.219 0.052 0.346-0.035 0.115-0.121 0.184-0.259 0.208-0.357 0.046-0.755 0.11-1.194 0.19-0.6 2.053-1.539 3.944-2.819 5.674s-2.825 3.171-4.636 4.324c-0.369 0.242-0.663 0.427-0.882 0.553-0.219 0.138-0.553 0.329-1.003 0.571-0.438 0.254-0.83 0.444-1.176 0.571s-0.726 0.248-1.142 0.363c-0.404 0.127-0.79 0.179-1.159 0.156-0.369-0.012-0.703-0.092-1.003-0.242-0.45-0.219-0.755-0.525-0.917-0.917-0.161-0.381-0.184-0.79-0.069-1.228 0.104-0.438 0.254-0.853 0.45-1.245 0.185-0.392 0.409-0.755 0.675-1.090 1.58-2.064 3.511-3.788 5.795-5.172 2.283-1.395 4.728-2.364 7.334-2.906 0.265-0.992 0.45-1.983 0.553-2.975 0.104-1.003 0.11-2.024 0.017-3.062-0.081-1.038-0.265-2.012-0.553-2.923s-0.726-1.764-1.315-2.56c-0.577-0.796-1.274-1.453-2.093-1.972-0.623-0.392-1.297-0.686-2.024-0.882-0.715-0.208-1.436-0.311-2.162-0.311-0.715 0-1.43 0.127-2.145 0.381-0.703 0.242-1.338 0.6-1.903 1.072-1.107 0.934-1.833 2.116-2.179 3.546s-0.236 2.802 0.329 4.117c0.058 0.138 0.046 0.259-0.035 0.363-0.081 0.092-0.184 0.138-0.311 0.138-0.127-0.012-0.219-0.081-0.277-0.208-0.357-0.819-0.553-1.661-0.588-2.525s0.069-1.672 0.311-2.422c0.242-0.761 0.611-1.476 1.107-2.145 0.496-0.68 1.067-1.251 1.712-1.712 0.657-0.461 1.401-0.807 2.231-1.038 0.83-0.242 1.684-0.323 2.56-0.242 1.119 0.104 2.133 0.398 3.044 0.882 0.923 0.484 1.689 1.095 2.301 1.833 0.611 0.727 1.124 1.563 1.539 2.508 0.427 0.946 0.726 1.926 0.899 2.941 0.185 1.003 0.271 2.030 0.259 3.079-0.023 1.315-0.196 2.635-0.519 3.961 0.346-0.058 0.64-0.104 0.882-0.138zM13.844 18.646c0.334-0.692 0.628-1.447 0.882-2.266-2.537 0.565-4.918 1.534-7.144 2.906-2.214 1.361-4.007 3.039-5.379 5.034-0.588 0.83-0.882 1.459-0.882 1.885 0 0.311 0.052 0.571 0.156 0.778 0.104 0.219 0.225 0.375 0.363 0.467 0.138 0.104 0.317 0.167 0.536 0.19 0.231 0.023 0.438 0.023 0.623 0s0.409-0.075 0.675-0.156c0.265-0.069 0.461-0.133 0.588-0.19 0.127-0.046 0.294-0.11 0.502-0.19 0.035-0.012 0.063-0.023 0.087-0.035 1.28-0.519 2.485-1.182 3.615-1.989 2.364-1.718 4.157-3.863 5.379-6.435zM18.993 15.914c0.542 0.138 0.923 0.473 1.142 1.003 0.219 0.519 0.231 1.044 0.035 1.574-0.173 0.507-0.432 0.974-0.778 1.401s-0.738 0.652-1.176 0.675c-0.45 0.023-0.778-0.133-0.986-0.467-0.196-0.334-0.254-0.721-0.173-1.159 0.161-0.899 0.628-1.799 1.401-2.698 0.023-0.023 0.052-0.046 0.087-0.069 0.081-0.219 0.231-0.306 0.45-0.259zM17.851 19.771c0.219 0.196 0.548 0.063 0.986-0.398 0.507-0.53 0.778-1.084 0.813-1.661 0.035-0.496-0.179-0.848-0.64-1.055-0.092 0.104-0.19 0.231-0.294 0.381-0.104 0.138-0.225 0.311-0.363 0.519s-0.259 0.415-0.363 0.623c-0.104 0.208-0.19 0.415-0.259 0.623-0.069 0.196-0.098 0.381-0.087 0.553 0.023 0.173 0.092 0.311 0.208 0.415zM26.045 16.104c0.115-0.081 0.236-0.092 0.363-0.035s0.196 0.144 0.208 0.259c0.023 0.115-0.017 0.219-0.121 0.311-0.842 0.588-1.609 1.159-2.301 1.712 0.311 0.196 0.565 0.392 0.761 0.588 0.208 0.184 0.386 0.398 0.536 0.64 0.161 0.242 0.219 0.507 0.173 0.796s-0.19 0.577-0.432 0.865c-0.242 0.288-0.559 0.554-0.951 0.796-0.392 0.254-0.807 0.444-1.245 0.571-0.427 0.138-0.836 0.133-1.228-0.017s-0.675-0.456-0.848-0.917c-0.265-0.727 0.121-1.563 1.159-2.508 0.254-0.219 0.542-0.467 0.865-0.744-0.023-0.012-0.173-0.092-0.45-0.242s-0.461-0.254-0.553-0.311c-0.092-0.058-0.242-0.156-0.45-0.294-0.196-0.138-0.352-0.271-0.467-0.398s-0.219-0.265-0.311-0.415c-0.357-0.623-0.161-1.32 0.588-2.093 0.646-0.669 1.39-1.101 2.231-1.297 0.923-0.219 1.505-0.017 1.747 0.605 0.035 0.104 0.063 0.219 0.087 0.346 0.012 0.138-0.035 0.248-0.138 0.329-0.104 0.069-0.219 0.086-0.346 0.052-0.127-0.046-0.196-0.138-0.208-0.277-0.092-0.634-0.675-0.628-1.747 0.017-0.473 0.277-0.83 0.536-1.072 0.778-0.208 0.208-0.357 0.386-0.45 0.536-0.081 0.15-0.104 0.317-0.069 0.502 0.046 0.173 0.173 0.357 0.381 0.553 0.104 0.092 0.225 0.19 0.363 0.294 0.138 0.092 0.254 0.167 0.346 0.225 0.104 0.058 0.248 0.144 0.432 0.259 0.196 0.104 0.323 0.173 0.381 0.208 0.035 0.012 0.081 0.040 0.138 0.087 0.069 0.035 0.121 0.058 0.156 0.069 0.761-0.611 1.586-1.228 2.474-1.851zM24.488 20.999c0.15-0.161 0.259-0.317 0.329-0.467s0.092-0.288 0.069-0.415c-0.023-0.138-0.069-0.265-0.138-0.381-0.058-0.115-0.156-0.231-0.294-0.346-0.127-0.115-0.254-0.213-0.381-0.294-0.127-0.092-0.277-0.19-0.45-0.294-0.311 0.265-0.605 0.513-0.882 0.744-0.046 0.046-0.127 0.115-0.242 0.208-0.104 0.092-0.19 0.167-0.259 0.225s-0.144 0.138-0.225 0.242c-0.069 0.092-0.127 0.184-0.173 0.277-0.254 0.565-0.231 0.969 0.069 1.211 0.311 0.242 0.727 0.294 1.245 0.156 0.427-0.104 0.871-0.392 1.332-0.865zM32.944 16.017c0.104-0.104 0.213-0.127 0.329-0.069 0.115 0.046 0.184 0.133 0.208 0.259 0.035 0.115 0.006 0.231-0.087 0.346-2.375 2.433-4.428 3.442-6.158 3.027-0.611-0.138-1.072-0.404-1.384-0.796-0.311-0.404-0.432-0.848-0.363-1.332 0.058-0.496 0.283-0.969 0.675-1.418 0.311-0.334 0.715-0.605 1.211-0.813 0.738-0.3 1.101-0.115 1.090 0.553 0 0.012 0 0.023 0 0.035-0.012 0.45-0.283 0.876-0.813 1.28s-1.009 0.536-1.436 0.398c-0.046 0.519 0.173 0.905 0.657 1.159s1.015 0.329 1.591 0.225c0.819-0.15 1.58-0.467 2.283-0.951 0.715-0.496 1.447-1.13 2.197-1.903zM27.46 15.914c-0.161 0.012-0.34 0.11-0.536 0.294-0.184 0.184-0.346 0.386-0.484 0.605 0.242 0.115 0.536-0.023 0.882-0.415 0.231-0.265 0.294-0.427 0.19-0.484-0.012 0-0.029 0-0.052 0zM36.804 16.848c0.138-0.023 0.242 0.017 0.311 0.121 0.081 0.104 0.098 0.219 0.052 0.346-0.035 0.127-0.121 0.202-0.259 0.225-1.188 0.184-2.341 0.553-3.459 1.107-0.035 1.384-0.046 2.791-0.035 4.221 0.196 0.161 0.334 0.283 0.415 0.363 0.969 0.899 1.591 2.37 1.868 4.411 0.104 0.773 0.075 1.539-0.087 2.301-0.242 1.188-0.761 1.453-1.557 0.796-0.231-0.196-0.432-0.467-0.605-0.813-0.161-0.334-0.288-0.669-0.381-1.003-0.081-0.334-0.15-0.744-0.208-1.228-0.046-0.484-0.075-0.888-0.087-1.211-0.012-0.311-0.023-0.709-0.035-1.194-0.012-0.473-0.017-0.784-0.017-0.934-0.012-0.254-0.023-0.594-0.035-1.021-1.176-0.888-2.56-1.257-4.151-1.107-0.173 0.012-0.288-0.063-0.346-0.225-0.069-0.15-0.040-0.283 0.087-0.398 1.58-1.499 3.073-2.629 4.48-3.39 0.069-1.465 0.173-2.935 0.311-4.411 0.012-0.15 0.029-0.421 0.052-0.813 0.035-0.392 0.063-0.75 0.087-1.072 0.023-0.334 0.063-0.726 0.121-1.176 0.058-0.461 0.127-0.871 0.208-1.228s0.196-0.715 0.346-1.072c0.15-0.369 0.317-0.663 0.502-0.882 0.196-0.219 0.438-0.381 0.727-0.484 0.288-0.115 0.605-0.138 0.951-0.069 0.138 0.035 0.231 0.115 0.277 0.242s0.035 0.242-0.035 0.346c-0.069 0.104-0.173 0.138-0.311 0.104-0.277-0.058-0.536 0.035-0.778 0.277-0.231 0.242-0.432 0.605-0.605 1.090-0.161 0.484-0.311 1.044-0.45 1.678-0.127 0.634-0.236 1.361-0.329 2.179-0.092 0.807-0.167 1.609-0.225 2.404-0.046 0.796-0.087 1.643-0.121 2.543 1.072-0.507 2.179-0.848 3.321-1.021zM35.092 29.336c0.092-1.026-0.006-2.006-0.294-2.941-0.288-0.923-0.744-1.718-1.367-2.387 0.023 0.853 0.046 1.447 0.069 1.782 0.104 1.349 0.248 2.381 0.432 3.096 0.15 0.565 0.352 0.963 0.605 1.194 0.265 0.242 0.438 0.087 0.519-0.467l0.035-0.277zM32.67 22.383c-0.012-1.142 0.006-2.254 0.052-3.338-1.061 0.6-2.168 1.424-3.321 2.474 1.222 0.035 2.312 0.323 3.269 0.865zM37.031 15.671c0.058-0.127 0.15-0.196 0.277-0.208s0.231 0.029 0.311 0.121c0.092 0.092 0.115 0.208 0.069 0.346-0.588 1.476-0.871 2.975-0.848 4.497 0 0.196-0.098 0.294-0.294 0.294-0.208 0-0.334-0.092-0.381-0.277-0.012-0.035-0.017-0.069-0.017-0.104-0.023-1.557 0.271-3.114 0.882-4.67zM38.19 13.682c0.081 0.196 0.023 0.352-0.173 0.467l-1.228 0.726c-0.081 0.046-0.167 0.052-0.259 0.017-0.092-0.046-0.156-0.11-0.19-0.19-0.081-0.184-0.023-0.34 0.173-0.467l1.228-0.726c0.081-0.046 0.167-0.046 0.259 0 0.092 0.035 0.156 0.092 0.19 0.173zM50.162 16.069c0.092-0.104 0.202-0.144 0.329-0.121 0.138 0.023 0.231 0.092 0.277 0.208 0.058 0.104 0.046 0.213-0.035 0.329-0.288 0.357-0.628 0.727-1.021 1.107s-0.853 0.761-1.384 1.142c-0.53 0.369-1.049 0.663-1.557 0.882-0.507 0.208-1.026 0.288-1.557 0.242-0.53-0.058-0.986-0.288-1.367-0.692-0.208-0.231-0.49-0.571-0.848-1.021-0.346-0.45-0.6-0.767-0.761-0.951-0.104-0.104-0.202-0.184-0.294-0.242-0.092-0.069-0.173-0.115-0.242-0.138s-0.144-0.017-0.225 0.017c-0.081 0.035-0.15 0.069-0.208 0.104-0.046 0.023-0.11 0.081-0.19 0.173s-0.138 0.167-0.173 0.225c-0.035 0.058-0.098 0.156-0.19 0.294-0.092 0.127-0.156 0.213-0.19 0.259-0.058 0.092-0.213 0.386-0.467 0.882-0.242 0.484-0.496 0.899-0.761 1.245-0.254 0.334-0.496 0.519-0.727 0.553-0.138 0.023-0.248-0.017-0.329-0.121-0.081-0.115-0.138-0.236-0.173-0.363-0.046-0.138-0.063-0.3-0.052-0.484 0.012-0.196 0.023-0.346 0.035-0.45s0.040-0.271 0.087-0.502c0.046-0.231 0.075-0.363 0.087-0.398 0.069-0.438 0.202-1.061 0.398-1.868 0.196-0.819 0.311-1.309 0.346-1.47 0.035-0.127 0.115-0.213 0.242-0.259s0.242-0.035 0.346 0.035c0.104 0.069 0.138 0.173 0.104 0.311-0.058 0.254-0.156 0.675-0.294 1.263-0.138 0.577-0.242 1.021-0.311 1.332-0.138 0.68-0.225 1.153-0.259 1.418 0 0.035 0 0.087 0 0.156 0.092-0.173 0.208-0.357 0.346-0.553 0.15-0.196 0.306-0.404 0.467-0.623s0.277-0.386 0.346-0.502c0.035-0.046 0.081-0.115 0.138-0.208 0.069-0.092 0.127-0.173 0.173-0.242s0.098-0.144 0.156-0.225c0.069-0.092 0.133-0.173 0.19-0.242s0.121-0.138 0.19-0.208c0.069-0.069 0.138-0.133 0.208-0.19 0.081-0.058 0.156-0.104 0.225-0.138 0.184-0.046 0.346-0.069 0.484-0.069s0.288 0.052 0.45 0.156c0.161 0.104 0.3 0.213 0.415 0.329 0.127 0.115 0.259 0.259 0.398 0.432 0.15 0.173 0.271 0.334 0.363 0.484 0.104 0.138 0.208 0.288 0.311 0.45 0.115 0.161 0.213 0.288 0.294 0.381 0.404 0.496 0.767 0.79 1.090 0.882 0.323 0.081 0.784 0.012 1.384-0.208 1.407-0.519 2.652-1.453 3.736-2.802zM56.997 16.017c0.104-0.104 0.213-0.127 0.329-0.069 0.115 0.046 0.184 0.133 0.208 0.259 0.035 0.115 0.006 0.231-0.087 0.346-2.376 2.433-4.428 3.442-6.158 3.027-0.611-0.138-1.072-0.404-1.384-0.796-0.311-0.404-0.432-0.848-0.363-1.332 0.058-0.496 0.283-0.969 0.675-1.418 0.311-0.334 0.715-0.605 1.211-0.813 0.738-0.3 1.101-0.115 1.090 0.553 0 0.012 0 0.023 0 0.035-0.012 0.45-0.283 0.876-0.813 1.28s-1.009 0.536-1.436 0.398c-0.046 0.519 0.173 0.905 0.657 1.159s1.015 0.329 1.591 0.225c0.819-0.15 1.58-0.467 2.283-0.951 0.715-0.496 1.447-1.13 2.197-1.903zM51.514 15.914c-0.161 0.012-0.34 0.11-0.536 0.294-0.184 0.184-0.346 0.386-0.484 0.605 0.242 0.115 0.536-0.023 0.882-0.415 0.231-0.265 0.294-0.427 0.19-0.484-0.012 0-0.029 0-0.052 0z"></path>
</symbol>
</defs>
</svg>
